HIERARCHY
ROOT hips
{
	OFFSET -0.003675 0.299928 -0.021708
	CHANNELS 6 Xposition Yposition Zposition Xrotation Yrotation Zrotation
	JOINT LowerBack
	{
		OFFSET 0.000919 0.177588 0.009275
		CHANNELS 3 Xrotation Yrotation Zrotation
		JOINT spine
		{
			OFFSET 0.000919 0.177588 0.009275
			CHANNELS 3 Xrotation Yrotation Zrotation
			JOINT chest
			{
				OFFSET 0.000456 0.100015 0.004638
				CHANNELS 3 Xrotation Yrotation Zrotation
				JOINT neck
				{
					OFFSET 0.000456 0.100015 0.004638
					CHANNELS 3 Xrotation Yrotation Zrotation
					JOINT head
					{
						OFFSET 0.000924 0.155147 0.009274
						CHANNELS 6 Xposition Yposition Zposition Xrotation Yrotation Zrotation
						End Site
						{
							OFFSET 0.000000 0.153400 0.000000
						}
					}
				}
				JOINT shoulder.L
				{
					OFFSET 0.019937 0.078966 0.057518
					CHANNELS 6 Xposition Yposition Zposition Yrotation Xrotation Zrotation
					JOINT upper_arm.L
					{
						OFFSET 0.177024 -0.020465 -0.095062
						CHANNELS 6 Xposition Yposition Zposition Xrotation Yrotation Zrotation
						JOINT forearm.L
						{
							OFFSET 0.247100 -0.135500 -0.061800
							CHANNELS 3 Xrotation Yrotation Zrotation
							JOINT hand.L
							{
								OFFSET 0.217000 -0.143000 0.039300
								CHANNELS 3 Xrotation Yrotation Zrotation
								JOINT palm.01.L
								{
									OFFSET 0.021770 -0.038291 0.012954
									CHANNELS 6 Xposition Yposition Zposition Yrotation Xrotation Zrotation
									JOINT f_index.01.L
									{
										OFFSET 0.053215 -0.044137 0.008236
										CHANNELS 3 Xrotation Yrotation Zrotation
										JOINT f_index.02.L
										{
											OFFSET 0.036108 -0.024723 -0.010656
											CHANNELS 3 Xrotation Yrotation Zrotation
											JOINT f_index.03.L
											{
												OFFSET 0.021342 -0.014948 -0.010846
												CHANNELS 3 Xrotation Yrotation Zrotation
												End Site
												{
													OFFSET 0.015600 -0.009860 -0.013421
												}
											}
										}
									}
									JOINT thumb.01.L
									{
										OFFSET -0.009090 -0.002348 -0.024223
										CHANNELS 6 Xposition Yposition Zposition Xrotation Yrotation Zrotation
										JOINT thumb.02.L
										{
											OFFSET 0.019713 -0.035076 -0.011120
											CHANNELS 3 Xrotation Yrotation Zrotation
											JOINT thumb.03.L
											{
												OFFSET 0.024877 -0.021748 -0.005176
												CHANNELS 3 Xrotation Yrotation Zrotation
												End Site
												{
													OFFSET 0.016125 -0.013029 -0.001569
												}
											}
										}
									}
								}
								JOINT palm.02.L
								{
									OFFSET 0.032823 -0.025104 0.012281
									CHANNELS 6 Xposition Yposition Zposition Yrotation Xrotation Zrotation
									JOINT f_middle.01.L
									{
										OFFSET 0.055723 -0.038469 0.008037
										CHANNELS 3 Xrotation Yrotation Zrotation
										JOINT f_middle.02.L
										{
											OFFSET 0.038167 -0.027473 -0.015582
											CHANNELS 3 Xrotation Yrotation Zrotation
											JOINT f_middle.03.L
											{
												OFFSET 0.021707 -0.016587 -0.017037
												CHANNELS 3 Xrotation Yrotation Zrotation
												End Site
												{
													OFFSET 0.014112 -0.010584 -0.014294
												}
											}
										}
									}
								}
								JOINT palm.03.L
								{
									OFFSET 0.039230 -0.011402 0.008390
									CHANNELS 6 Xposition Yposition Zposition Yrotation Xrotation Zrotation
									JOINT f_ring.01.L
									{
										OFFSET 0.061796 -0.031470 0.007910
										CHANNELS 3 Xrotation Yrotation Zrotation
										JOINT f_ring.02.L
										{
											OFFSET 0.033092 -0.023401 -0.019127
											CHANNELS 3 Xrotation Yrotation Zrotation
											JOINT f_ring.03.L
											{
												OFFSET 0.021392 -0.015362 -0.017824
												CHANNELS 3 Xrotation Yrotation Zrotation
												End Site
												{
													OFFSET 0.008670 -0.007297 -0.014686
												}
											}
										}
									}
								}
								JOINT palm.04.L
								{
									OFFSET 0.043417 0.002450 0.002889
									CHANNELS 6 Xposition Yposition Zposition Yrotation Xrotation Zrotation
									JOINT f_pinky.01.L
									{
										OFFSET 0.069986 -0.026156 0.003627
										CHANNELS 3 Xrotation Yrotation Zrotation
										JOINT f_pinky.02.L
										{
											OFFSET 0.018520 -0.012813 -0.016429
											CHANNELS 3 Xrotation Yrotation Zrotation
											JOINT f_pinky.03.L
											{
												OFFSET 0.013822 -0.009796 -0.014947
												CHANNELS 3 Xrotation Yrotation Zrotation
												End Site
												{
													OFFSET 0.007238 -0.006103 -0.011657
												}
											}
										}
									}
								}
							}
						}
					}
				}
				JOINT shoulder.R
				{
					OFFSET -0.016662 0.078957 0.057696
					CHANNELS 6 Xposition Yposition Zposition Yrotation Xrotation Zrotation
					JOINT upper_arm.R
					{
						OFFSET -0.176972 -0.020537 -0.095144
						CHANNELS 6 Xposition Yposition Zposition Xrotation Yrotation Zrotation
						JOINT forearm.R
						{
							OFFSET -0.247100 -0.135500 -0.061800
							CHANNELS 3 Xrotation Yrotation Zrotation
							JOINT hand.R
							{
								OFFSET -0.217000 -0.143000 0.039300
								CHANNELS 3 Xrotation Yrotation Zrotation
								JOINT palm.01.R
								{
									OFFSET -0.021773 -0.038278 0.012988
									CHANNELS 6 Xposition Yposition Zposition Yrotation Xrotation Zrotation
									JOINT f_index.01.R
									{
										OFFSET -0.053212 -0.044139 0.008249
										CHANNELS 3 Xrotation Yrotation Zrotation
										JOINT f_index.02.R
										{
											OFFSET -0.036049 -0.024835 -0.010634
											CHANNELS 3 Xrotation Yrotation Zrotation
											JOINT f_index.03.R
											{
												OFFSET -0.021371 -0.014881 -0.010866
												CHANNELS 3 Xrotation Yrotation Zrotation
												End Site
												{
													OFFSET -0.015584 -0.009883 -0.013422
												}
											}
										}
									}
									JOINT thumb.01.R
									{
										OFFSET 0.009113 -0.002381 -0.024211
										CHANNELS 6 Xposition Yposition Zposition Xrotation Yrotation Zrotation
										JOINT thumb.02.R
										{
											OFFSET -0.019694 -0.035097 -0.011088
											CHANNELS 3 Xrotation Yrotation Zrotation
											JOINT thumb.03.R
											{
												OFFSET -0.024867 -0.021762 -0.005168
												CHANNELS 3 Xrotation Yrotation Zrotation
												End Site
												{
													OFFSET -0.016120 -0.013036 -0.001565
												}
											}
										}
									}
								}
								JOINT palm.02.R
								{
									OFFSET -0.032828 -0.025095 0.012286
									CHANNELS 6 Xposition Yposition Zposition Yrotation Xrotation Zrotation
									JOINT f_middle.01.R
									{
										OFFSET -0.055721 -0.038472 0.008040
										CHANNELS 3 Xrotation Yrotation Zrotation
										JOINT f_middle.02.R
										{
											OFFSET -0.038101 -0.027593 -0.015557
											CHANNELS 3 Xrotation Yrotation Zrotation
											JOINT f_middle.03.R
											{
												OFFSET -0.021730 -0.016530 -0.017054
												CHANNELS 3 Xrotation Yrotation Zrotation
												End Site
												{
													OFFSET -0.014096 -0.010608 -0.014293
												}
											}
										}
									}
								}
								JOINT palm.03.R
								{
									OFFSET -0.039192 -0.011488 0.008390
									CHANNELS 6 Xposition Yposition Zposition Yrotation Xrotation Zrotation
									JOINT f_ring.01.R
									{
										OFFSET -0.061839 -0.031387 0.007876
										CHANNELS 3 Xrotation Yrotation Zrotation
										JOINT f_ring.02.R
										{
											OFFSET -0.033068 -0.023437 -0.019125
											CHANNELS 3 Xrotation Yrotation Zrotation
											JOINT f_ring.03.R
											{
												OFFSET -0.021371 -0.015393 -0.017822
												CHANNELS 3 Xrotation Yrotation Zrotation
												End Site
												{
													OFFSET -0.008654 -0.007321 -0.014684
												}
											}
										}
									}
								}
								JOINT palm.04.R
								{
									OFFSET -0.043421 0.002443 0.002845
									CHANNELS 6 Xposition Yposition Zposition Yrotation Xrotation Zrotation
									JOINT f_pinky.01.R
									{
										OFFSET -0.069983 -0.026169 0.003599
										CHANNELS 3 Xrotation Yrotation Zrotation
										JOINT f_pinky.02.R
										{
											OFFSET -0.018501 -0.012842 -0.016428
											CHANNELS 3 Xrotation Yrotation Zrotation
											JOINT f_pinky.03.R
											{
												OFFSET -0.013806 -0.009821 -0.014946
												CHANNELS 3 Xrotation Yrotation Zrotation
												End Site
												{
													OFFSET -0.007226 -0.006121 -0.011655
												}
											}
										}
									}
								}
							}
						}
					}
				}
			}
		}
	}
	JOINT pelvis.L
	{
		OFFSET 0.000000 0.000000 0.000000
		CHANNELS 6 Xposition Yposition Zposition Xrotation Yrotation Zrotation
		JOINT thigh.L
		{
			OFFSET 0.101675 0.001054 -0.000000
			CHANNELS 3 Xrotation Yrotation Zrotation
			JOINT shin.L
			{
				OFFSET 0.000000 -0.534800 0.041000
				CHANNELS 3 Xrotation Yrotation Zrotation
				JOINT foot.L
				{
					OFFSET 0.000000 -0.452000 -0.044800
					CHANNELS 3 Xrotation Yrotation Zrotation
					JOINT toe.L
					{
						OFFSET -0.000000 -0.068500 0.109600
						CHANNELS 3 Xrotation Yrotation Zrotation
						End Site
						{
							OFFSET -0.000000 0.000000 0.067200
						}
					}
				}
				JOINT heel.L
				{
					OFFSET 0.000000 -0.452000 -0.044800
					CHANNELS 3 Xrotation Yrotation Zrotation
					JOINT heel.02.L
					{
						OFFSET -0.038000 -0.085200 0.016200
						CHANNELS 6 Xposition Yposition Zposition Xrotation Yrotation Zrotation
						End Site
						{
							OFFSET 0.080000 -0.000000 0.000000
						}
					}
				}
			}
		}
	}
	JOINT pelvis.R
	{
		OFFSET 0.000000 0.000000 0.000000
		CHANNELS 6 Xposition Yposition Zposition Xrotation Yrotation Zrotation
		JOINT thigh.R
		{
			OFFSET -0.094325 0.001054 0.000000
			CHANNELS 3 Xrotation Yrotation Zrotation
			JOINT shin.R
			{
				OFFSET 0.000000 -0.534800 0.041000
				CHANNELS 3 Xrotation Yrotation Zrotation
				JOINT foot.R
				{
					OFFSET 0.000000 -0.452000 -0.044800
					CHANNELS 3 Xrotation Yrotation Zrotation
					JOINT toe.R
					{
						OFFSET -0.000000 -0.068500 0.109600
						CHANNELS 3 Xrotation Yrotation Zrotation
						End Site
						{
							OFFSET -0.000000 0.000000 0.067200
						}
					}
				}
				JOINT heel.R
				{
					OFFSET 0.000000 -0.452000 -0.044800
					CHANNELS 3 Xrotation Yrotation Zrotation
					JOINT heel.02.R
					{
						OFFSET 0.038000 -0.085200 0.016200
						CHANNELS 6 Xposition Yposition Zposition Xrotation Yrotation Zrotation
						End Site
						{
							OFFSET -0.080000 0.000000 -0.000000
						}
					}
				}
			}
		}
	}
}
MOTION
Frames: 4
Frame Time: 0.041667
-0.007858 0.272621 -0.020177 1.900801 -58.718679 4.914384 -0.000000 0.000002 0.000000 -0.000000 -0.000003 0.000000 0.000000 0.000004 0.000000 0.000001 0.000007 -0.000000 0.000924 0.155148 0.009274 -5.232111 0.015599 -7.245905 0.019937 0.078966 0.057518 -8.350089 7.763926 42.791183 0.177024 -0.020465 -0.095062 -3.875088 12.051320 -32.038457 -189.938422 -135.300993 -153.519539 -0.000000 0.000001 0.000001 0.021770 -0.038291 0.012954 0.000002 0.000001 -0.000002 -0.000000 -0.000000 0.000001 -0.000000 0.000001 0.000008 -0.000000 0.000002 0.000004 -0.009090 -0.002348 -0.024223 0.000003 -0.000001 0.000003 -0.000000 0.000001 0.000006 -0.000000 -0.000001 -0.000002 0.032823 -0.025104 0.012281 0.000002 0.000002 0.000004 -0.000001 0.000003 -0.000009 -0.000003 -0.000001 0.000001 -0.000000 -0.000005 0.000007 0.039230 -0.011402 0.008390 0.000001 -0.000000 0.000006 0.000002 0.000000 -0.000002 0.000003 0.000005 -0.000001 -0.000000 -0.000002 0.000003 0.043417 0.002450 0.002889 -0.000001 0.000001 -0.000003 -0.000001 0.000001 -0.000005 0.000005 0.000002 -0.000001 0.000004 -0.000001 -0.000006 -0.016662 0.078956 0.057696 -26.517407 11.020431 -34.858010 -0.176972 -0.020537 -0.095144 -0.800008 -10.960453 25.263248 -10.060180 49.018232 331.978121 0.000000 -0.000001 -0.000005 -0.021773 -0.038278 0.012988 -0.000001 -0.000001 -0.000002 0.000003 -0.000002 0.000006 -0.000005 0.000003 -0.000004 0.000001 -0.000002 0.000003 0.009114 -0.002381 -0.024211 0.000003 -0.000001 0.000004 -0.000002 -0.000002 0.000005 0.000002 -0.000005 0.000001 -0.032828 -0.025095 0.012286 -0.000003 -0.000000 0.000002 0.000002 -0.000000 -0.000003 -0.000000 -0.000001 -0.000001 -0.000003 -0.000002 -0.000000 -0.039192 -0.011488 0.008390 -0.000002 0.000000 0.000001 -0.000001 0.000006 -0.000002 -0.000000 -0.000001 0.000003 -0.000001 0.000003 0.000001 -0.043421 0.002443 0.002844 -0.000005 0.000001 0.000004 -0.000005 0.000002 -0.000001 0.000001 -0.000001 0.000002 -0.000003 0.000000 0.000004 0.000000 0.000000 -0.000000 -1.345883 0.068303 -1.936433 21.449755 0.244050 2.319724 6.682715 -0.016590 0.169473 -0.000005 -0.000003 0.000001 0.000002 -0.000003 0.000002 -0.000003 -0.000001 0.000000 -0.038000 -0.085200 0.016200 -0.000002 -0.000000 0.000001 0.000000 -0.000000 -0.000000 -1.315026 0.067590 -0.702287 -18.844690 0.194780 1.008009 24.162604 1.035031 -10.501980 -0.000003 -0.000002 0.000001 0.000001 0.000002 0.000000 0.000007 -0.000000 -0.000000 0.038000 -0.085200 0.016200 -0.000001 -0.000001 -0.000001 
-0.008706 0.268185 -0.020143 -1.122472 -61.877593 4.055310 -0.000001 0.000002 0.000000 -0.000000 0.000000 0.000000 -0.000000 -0.000003 -0.000000 -0.000000 -0.000003 -0.000000 0.000924 0.155147 0.009274 -15.476377 0.047603 -6.030379 0.019937 0.078966 0.057518 -7.722627 8.394387 45.303671 0.177024 -0.020466 -0.095062 -16.731192 4.783794 -30.982503 -141.641348 -137.724863 -92.615617 -0.000004 -0.000005 -0.000001 0.021770 -0.038291 0.012954 0.000002 -0.000000 0.000003 0.000002 -0.000000 0.000005 0.000002 0.000003 0.000007 -0.000000 0.000003 0.000000 -0.009090 -0.002348 -0.024224 0.000001 -0.000001 0.000003 0.000002 -0.000002 0.000006 -0.000000 0.000000 0.000003 0.032823 -0.025104 0.012281 0.000001 0.000003 0.000007 -0.000001 0.000000 -0.000007 -0.000002 -0.000003 -0.000001 -0.000003 0.000002 0.000006 0.039230 -0.011402 0.008390 -0.000000 0.000002 0.000006 0.000004 0.000006 -0.000000 0.000005 0.000008 -0.000002 -0.000002 -0.000005 -0.000000 0.043417 0.002450 0.002889 -0.000001 0.000004 -0.000002 -0.000000 -0.000006 -0.000004 0.000004 0.000002 -0.000001 -0.000001 -0.000004 0.000001 -0.016662 0.078957 0.057696 -24.375291 11.206323 -38.386930 -0.176972 -0.020537 -0.095144 -3.223983 -9.218274 20.562025 23.751300 58.046438 291.019881 0.000004 -0.000001 0.000000 -0.021773 -0.038278 0.012988 0.000000 -0.000000 -0.000003 -0.000001 0.000003 0.000001 -0.000002 -0.000005 -0.000010 0.000001 0.000005 -0.000002 0.009114 -0.002381 -0.024211 -0.000001 -0.000004 0.000002 -0.000001 0.000001 0.000004 0.000006 0.000000 -0.000006 -0.032828 -0.025095 0.012286 0.000000 -0.000002 0.000001 -0.000004 0.000005 -0.000003 0.000001 -0.000004 -0.000001 0.000001 0.000000 -0.000000 -0.039192 -0.011488 0.008390 0.000000 0.000000 0.000001 0.000001 0.000003 -0.000003 -0.000004 -0.000000 -0.000002 0.000004 0.000000 0.000003 -0.043421 0.002443 0.002844 0.000001 -0.000003 0.000000 -0.000003 0.000004 -0.000003 -0.000001 -0.000007 -0.000002 -0.000003 0.000001 -0.000001 -0.000000 0.000000 -0.000000 -1.335651 0.150195 -3.021156 20.665255 0.155155 1.199230 3.493522 -0.107344 1.085156 -0.000003 -0.000001 -0.000001 -0.000000 0.000000 -0.000001 0.000000 -0.000001 0.000003 -0.038000 -0.085200 0.016200 0.000000 -0.000000 -0.000001 -0.000000 0.000000 -0.000000 -1.302655 0.148799 -1.787042 -9.535385 0.036039 -0.476403 19.145717 0.714207 -7.224814 0.000000 -0.000002 0.000001 -0.000000 0.000005 0.000000 0.000005 0.000000 -0.000001 0.038000 -0.085200 0.016200 0.000001 -0.000002 -0.000000 
-0.011230 0.268122 -0.017914 -5.651185 -57.358064 -1.245460 -0.000000 0.000000 -0.000000 -0.000000 0.000001 -0.000000 -0.000000 -0.000001 0.000000 0.000000 -0.000001 0.000000 0.000924 0.155147 0.009274 -2.557212 0.009424 -6.487651 0.019937 0.078966 0.057518 -2.955881 7.313107 39.890815 0.177025 -0.020465 -0.095062 -15.054823 5.517052 -31.317172 -56.857210 -296.912749 -99.480442 0.000000 0.000003 0.000001 0.021770 -0.038291 0.012954 0.000000 0.000002 0.000001 -0.000003 -0.000000 0.000001 -0.000004 -0.000000 0.000009 -0.000000 0.000004 -0.000000 -0.009090 -0.002348 -0.024224 -0.000004 -0.000001 -0.000003 0.000001 0.000001 -0.000000 0.000002 0.000001 -0.000002 0.032823 -0.025104 0.012281 -0.000001 0.000003 0.000005 -0.000001 0.000001 -0.000003 -0.000003 0.000000 0.000001 -0.000000 0.000003 0.000001 0.039230 -0.011402 0.008390 0.000001 0.000002 0.000001 0.000002 0.000002 0.000001 -0.000001 0.000003 0.000004 0.000005 -0.000002 0.000003 0.043417 0.002450 0.002889 0.000000 0.000002 -0.000002 -0.000001 -0.000008 -0.000000 -0.000000 0.000004 -0.000003 -0.000001 -0.000002 -0.000002 -0.016662 0.078957 0.057696 -16.098235 9.511393 -38.628060 -0.176972 -0.020537 -0.095144 -3.925313 -9.074407 23.261005 117.335328 -128.626191 271.055347 -0.000001 0.000002 0.000003 -0.021773 -0.038278 0.012988 0.000002 0.000003 0.000000 -0.000003 0.000003 0.000004 -0.000003 -0.000002 -0.000003 -0.000004 -0.000001 0.000007 0.009114 -0.002381 -0.024211 0.000001 -0.000005 0.000003 0.000000 -0.000001 0.000000 0.000001 0.000005 -0.000008 -0.032828 -0.025095 0.012286 0.000000 0.000000 -0.000004 -0.000001 0.000001 0.000002 0.000000 0.000004 -0.000005 -0.000002 0.000002 -0.000001 -0.039192 -0.011488 0.008390 -0.000000 0.000002 -0.000000 0.000001 0.000006 -0.000002 0.000004 -0.000003 0.000003 -0.000000 -0.000002 -0.000005 -0.043421 0.002443 0.002844 -0.000001 0.000002 -0.000001 -0.000002 0.000001 0.000001 -0.000002 0.000000 0.000002 -0.000000 0.000003 0.000000 -0.000000 0.000000 -0.000000 -1.350963 0.026948 -1.390256 17.980545 -0.006447 -0.790046 2.829735 -0.193282 1.952629 0.000002 0.000001 0.000001 -0.000002 -0.000000 -0.000000 0.000002 0.000001 0.000001 -0.038000 -0.085200 0.016200 0.000002 -0.000000 -0.000000 -0.000000 0.000000 -0.000000 -1.321177 0.026542 -0.156083 0.990091 0.008483 -0.147916 7.924589 0.928512 -9.410613 0.000003 0.000004 -0.000002 0.000001 0.000001 -0.000001 0.000003 0.000001 0.000001 0.038000 -0.085200 0.016200 -0.000001 -0.000000 0.000001 
-0.011390 0.271457 -0.016325 -8.828892 -55.785700 -7.406655 -0.000000 0.000000 0.000000 0.000000 0.000000 0.000000 0.000000 -0.000001 0.000000 -0.000000 -0.000003 -0.000000 0.000924 0.155148 0.009274 3.928801 -0.002149 -1.050379 0.019937 0.078966 0.057518 -7.079291 7.072858 39.188012 0.177025 -0.020465 -0.095062 -32.940838 -1.358220 -34.800289 -26.148959 -304.631109 -134.843261 -0.000001 0.000002 0.000006 0.021770 -0.038291 0.012954 0.000003 0.000001 -0.000002 -0.000001 0.000001 0.000007 -0.000002 -0.000002 0.000006 -0.000001 0.000003 -0.000000 -0.009090 -0.002348 -0.024223 0.000001 -0.000002 -0.000001 -0.000003 0.000001 0.000001 -0.000002 -0.000004 -0.000002 0.032823 -0.025104 0.012281 0.000002 0.000003 0.000005 -0.000001 0.000004 -0.000003 -0.000003 0.000000 0.000001 -0.000000 0.000002 0.000004 0.039230 -0.011402 0.008390 0.000004 -0.000000 0.000006 0.000000 0.000000 0.000001 -0.000002 0.000004 0.000001 -0.000001 -0.000002 0.000003 0.043417 0.002450 0.002889 0.000003 -0.000000 -0.000003 -0.000000 -0.000003 -0.000000 0.000001 0.000002 -0.000001 -0.000002 -0.000003 0.000001 -0.016662 0.078957 0.057696 -10.574207 8.463094 -37.221512 -0.176972 -0.020537 -0.095144 -12.508130 -5.334569 31.569042 150.336234 -139.800968 310.030674 0.000000 -0.000002 0.000001 -0.021773 -0.038278 0.012988 -0.000001 -0.000000 0.000000 0.000001 0.000001 -0.000005 -0.000001 -0.000000 0.000001 -0.000005 0.000002 -0.000003 0.009114 -0.002381 -0.024211 0.000001 -0.000004 -0.000001 0.000000 -0.000001 -0.000001 -0.000000 -0.000003 -0.000003 -0.032828 -0.025095 0.012286 -0.000000 -0.000001 0.000002 -0.000001 -0.000001 -0.000001 -0.000000 0.000002 0.000000 -0.000000 0.000000 -0.000005 -0.039192 -0.011488 0.008390 0.000002 0.000001 0.000003 0.000004 0.000001 -0.000002 -0.000001 -0.000004 0.000002 0.000001 0.000002 -0.000002 -0.043421 0.002443 0.002845 0.000002 0.000001 0.000004 0.000000 0.000004 -0.000001 0.000003 -0.000003 0.000000 0.000000 0.000001 -0.000001 0.000000 0.000000 -0.000000 -1.321598 0.033410 -1.481425 14.629007 -0.115703 -2.039389 3.374647 -0.429994 4.344744 -0.000002 -0.000000 -0.000002 -0.000002 0.000003 0.000000 0.000002 0.000000 0.000002 -0.038000 -0.085200 0.016200 0.000001 -0.000000 -0.000001 0.000000 0.000000 -0.000000 -1.292271 0.032964 -0.247274 7.345765 0.148010 2.106275 3.942614 1.119012 -11.365384 0.000002 -0.000002 0.000000 0.000002 -0.000001 -0.000001 0.000002 -0.000003 -0.000000 0.038000 -0.085200 0.016200 -0.000001 0.000005 -0.000001 
